<?xml version="1.0" ?><!DOCTYPE svg  PUBLIC '-//W3C//DTD SVG 1.1//EN'  'http://www.w3.org/Graphics/SVG/1.1/DTD/svg11.dtd'><svg enable-background="new 0 0 32 32" version="1.1" viewBox="0 0 32 32" xml:space="preserve" xmlns="http://www.w3.org/2000/svg" xmlns:xlink="http://www.w3.org/1999/xlink"><g id="Layer_2"/><g id="Layer_3"/><g id="Layer_4"/><g id="Layer_5"/><g id="Layer_6"/><g id="Layer_7"/><g id="Layer_8"/><g id="Layer_9"/><g id="Layer_10"/><g id="Layer_11"/><g id="Layer_12"/><g id="Layer_13"><g><path d="M16,10c-0.6,0-1-0.4-1-1V6c0-0.6,0.4-1,1-1s1,0.4,1,1v3C17,9.6,16.6,10,16,10z" fill="#FE5723"/></g><g><path d="M7,12c-0.3,0-0.5-0.1-0.7-0.3l-2-2c-0.4-0.4-0.4-1,0-1.4s1-0.4,1.4,0l2,2c0.4,0.4,0.4,1,0,1.4    C7.5,11.9,7.3,12,7,12z" fill="#FE5723"/></g><g><path d="M25,12c-0.3,0-0.5-0.1-0.7-0.3c-0.4-0.4-0.4-1,0-1.4l2-2c0.4-0.4,1-0.4,1.4,0s0.4,1,0,1.4l-2,2    C25.5,11.9,25.3,12,25,12z" fill="#FE5723"/></g><g><path d="M27,22c0,1.4-0.3,2.7-0.7,4c-0.1,0.3-0.3,0.5-0.6,0.6C24.9,26.8,24,27,23,27c-2,0-3.1-0.6-4-1.1    c-0.8-0.5-1.5-0.9-3-0.9s-2.2,0.4-3,0.9c-0.9,0.5-2,1.1-4,1.1c-1,0-1.9-0.2-2.7-0.5C6,26.4,5.8,26.2,5.7,26C5.3,24.7,5,23.4,5,22    c0-6.1,4.9-11,11-11S27,15.9,27,22z" fill="#FFC10A"/></g><g><path d="M23,27c-2,0-3.1-0.6-4-1.1c-0.8-0.5-1.5-0.9-3-0.9c-1.5,0-2.2,0.4-3,0.9c-0.9,0.5-2,1.1-4,1.1    c-1,0-1.9-0.2-2.7-0.5c-0.5-0.2-0.9-0.4-1.3-0.6C4.2,25.4,3.5,25,2,25c-0.6,0-1-0.4-1-1s0.4-1,1-1c2,0,3.1,0.6,4,1.1    c0.3,0.2,0.7,0.4,1,0.5C7.6,24.9,8.2,25,9,25c1.5,0,2.2-0.4,3-0.9c0.9-0.5,2-1.1,4-1.1c2,0,3.1,0.6,4,1.1c0.8,0.5,1.5,0.9,3,0.9    c0.8,0,1.4-0.1,2-0.3c0.4-0.1,0.7-0.3,1-0.5c0.9-0.5,2-1.1,4-1.1c0.6,0,1,0.4,1,1s-0.4,1-1,1c-1.5,0-2.2,0.4-3,0.9    c-0.4,0.2-0.8,0.5-1.3,0.7C24.9,26.8,24,27,23,27z" fill="#2197F3"/></g></g><g id="Layer_14"/><g id="Layer_15"/><g id="Layer_16"/><g id="Layer_17"/><g id="Layer_18"/><g id="Layer_19"/><g id="Layer_20"/><g id="Layer_21"/><g id="Layer_22"/><g id="Layer_23"/><g id="Layer_24"/><g id="Layer_25"/><g id="Wearher"/></svg>